<?xml version="1.0" encoding="UTF-8"?>
<svg xmlns="http://www.w3.org/2000/svg" xmlns:xlink="http://www.w3.org/1999/xlink" width="42px" height="42px" version="1.1" viewBox="0 0 42 42">
    <g id="Page-1" fill="none" fill-rule="evenodd" stroke="none" stroke-width="1">
        <g id="aas-logo" fill="#3276BC" fill-rule="nonzero">
            <g id="Group">
                <path id="Shape" d="M17.2,38.4 L3.5,38.4 L3.5,24.8 L6.2,24.8 C5.9,24 5.7,23.1 5.7,22.1 C5.7,22.1 5.7,22 5.7,21.9 L0.6,21.9 L0.6,41.2 L20,41.2 L20,29.8 L17.2,29.8 L17.2,38.4 Z"/>
                <path id="Shape" d="M36.3,24.8 L38.8,24.8 L38.8,38.4 L25.1,38.4 L25.1,29.8 L22.3,29.8 L22.3,41.2 L41.7,41.2 L41.7,21.9 L35.6,21.9 C36.1,22.7 36.3,23.6 36.3,24.6 C36.3,24.7 36.3,24.7 36.3,24.8 Z"/>
                <path id="Shape" d="M3.5,16.7 L3.5,3.1 L17.2,3.1 L17.2,11 C18.1,10.4 19,9.9 20,9.6 L20,0.3 L0.7,0.3 L0.7,19.6 L6.3,19.6 C6.7,18.5 7.3,17.6 8.1,16.8 L3.5,16.7 Z"/>
                <path id="Shape" d="M25.1,9.4 L25.1,3.1 L38.8,3.1 L38.8,16.7 L32.9,16.7 C33.1,17.6 33.3,18.5 33.3,19.4 C33.3,19.4 33.3,19.5 33.3,19.5 L41.7,19.5 L41.7,0.2 L22.3,0.2 L22.3,9.1 C22.5,9.1 22.8,9.1 23,9.1 C23.7,9.1 24.4,9.2 25.1,9.4 Z"/>
            </g>
            <path id="Shape" d="M34.2,24.6 C34.2,22.9 32.8,21.5 31.2,21.5 C31.1,21.5 31,21.5 30.8,21.5 C31,20.8 31.1,20.1 31.1,19.3 C31.1,14.8 27.5,11.1 23,11.1 C19.4,11.1 16.4,13.4 15.3,16.7 C14.7,16.5 14.1,16.4 13.5,16.4 C10.4,16.4 8,18.9 8,22 C8,25.1 10.5,27.6 13.5,27.6 L31.5,27.6 C33,27.5 34.2,26.2 34.2,24.6"/>
        </g>
    </g>
</svg>
