<svg width="74" height="74" viewBox="0 0 74 74" fill="none" xmlns="http://www.w3.org/2000/svg">
<path d="M72.6215 33.7406L40.2648 1.38825C38.4135 -0.462751 35.3549 -0.462751 33.5037 1.38825L26.8231 8.06797L35.3549 16.5987C37.3672 15.9549 39.6209 16.3573 41.1502 17.9668C42.7599 19.5764 43.1624 21.8298 42.5185 23.8418L50.7284 32.0506C52.7406 31.4067 54.9943 31.8091 56.6041 33.4187C58.8578 35.5916 58.8578 39.2132 56.6041 41.4666C54.3504 43.72 50.8089 43.72 48.5552 41.4666C46.8649 39.7765 46.4624 37.3622 47.3478 35.2697L39.7013 27.6243V47.7439C40.2648 47.9853 40.7477 48.3877 41.2306 48.7901C43.4843 50.963 43.4843 54.5846 41.2306 56.838C38.9769 59.0109 35.4354 59.0109 33.1817 56.838C30.928 54.5846 30.928 51.0435 33.1817 48.7901C33.7451 48.2268 34.389 47.8244 35.033 47.5829V27.2219C34.389 26.9804 33.7451 26.4976 33.1817 26.0147C31.4914 24.3246 31.089 21.9103 31.9744 19.8178L23.523 11.4481L1.38844 33.5797C-0.462813 35.4307 -0.462813 38.4889 1.38844 40.3399L33.6646 72.6117C35.5159 74.4628 38.5745 74.4628 40.4257 72.6117L72.541 40.5008C74.4727 38.5693 74.4727 35.5916 72.6215 33.7406Z" fill="#EE523B"/>
</svg>
