<svg width="100" height="100" viewBox="0 0 100 100" fill="none" xmlns="http://www.w3.org/2000/svg">
<path d="M44.3323 100C42.9555 100 41.6705 99.6329 40.4773 98.9904L28.2698 91.7393C26.4341 90.7297 27.352 90.3626 27.9027 90.179C30.3809 89.3529 30.8398 89.1693 33.4098 87.7008C33.6852 87.5172 34.0523 87.609 34.3277 87.7926L43.6898 93.3915C44.0569 93.575 44.5158 93.575 44.7912 93.3915L81.4135 72.1891C81.7806 72.0055 81.9642 71.6384 81.9642 71.1794V28.7747C81.9642 28.3157 81.7806 27.9486 81.4135 27.765L44.9748 6.65443C44.6076 6.47086 44.1487 6.47086 43.8733 6.65443L7.25103 27.765C6.88389 27.9486 6.70032 28.4075 6.70032 28.7747V71.0877C6.70032 71.4548 6.88389 71.9137 7.25103 72.0973L17.2556 77.8798C22.6709 80.6333 26.067 77.4208 26.067 74.2084V32.4461C26.067 31.8954 26.5259 31.3447 27.1684 31.3447H31.8495C32.4002 31.3447 32.9509 31.8036 32.9509 32.4461V74.2084C32.9509 81.4594 29.0041 85.6815 22.1202 85.6815C20.0092 85.6815 18.357 85.6815 13.676 83.3869L4.03855 77.8798C1.46856 76.4112 0 73.8412 0 71.0877V28.7747C0 26.0211 1.46856 23.4511 3.85498 22.0743L40.4773 0.963745C42.7719 -0.321248 45.8926 -0.321248 48.1872 0.963745L84.8095 22.1661C87.196 23.5429 88.6645 26.1129 88.6645 28.8665V71.1794C88.6645 73.933 87.196 76.503 84.8095 77.8798L48.1872 99.0821C47.0858 99.6329 45.709 100 44.3323 100Z" transform="translate(6)" fill="white"/>
<path d="M19.3667 40.6609C3.30427 40.6609 -1.40053e-06 33.318 -1.40053e-06 27.0766C-1.40053e-06 26.5259 0.458925 25.9752 1.10142 25.9752H5.87425C6.42497 25.9752 6.88389 26.3424 6.88389 26.8931C7.61817 31.7577 9.72923 34.1441 19.4585 34.1441C27.1684 34.1441 30.4727 32.4002 30.4727 28.2698C30.4727 25.8834 29.5548 24.1395 17.531 22.9463C7.34282 22.0285 1.19321 19.8256 1.19321 11.8403C1.19321 4.40569 7.4346 0 17.8981 0C29.6466 0 35.4291 4.03855 36.1634 12.8499C36.1634 13.1253 36.0716 13.4006 35.888 13.676C35.7045 13.8596 35.4291 14.0431 35.1537 14.0431H30.3809C29.922 14.0431 29.4631 13.676 29.3713 13.2171C28.2698 8.16889 25.4245 6.51675 17.8981 6.51675C9.45388 6.51675 8.44424 9.45388 8.44424 11.6567C8.44424 14.3185 9.63745 15.1446 21.0188 16.6131C32.3084 18.0817 37.6319 20.1927 37.6319 28.0863C37.6319 36.0716 30.9316 40.6609 19.3667 40.6609Z" transform="translate(42.3469 30.2432)" fill="white"/>
</svg>
